<svg id="visual" viewBox="0 0 960 100" width="960" height="100" xmlns="http://www.w3.org/2000/svg" xmlns:xlink="http://www.w3.org/1999/xlink" version="1.1"><path d="M0 22L13.3 25.5C26.7 29 53.3 36 80 40.5C106.7 45 133.3 47 160 40.5C186.7 34 213.3 19 240 12C266.7 5 293.3 6 320 10.7C346.7 15.3 373.3 23.7 400 22.8C426.7 22 453.3 12 480 16.3C506.7 20.7 533.3 39.3 560 41.5C586.7 43.7 613.3 29.3 640 19.7C666.7 10 693.3 5 720 8.3C746.7 11.7 773.3 23.3 800 30.2C826.7 37 853.3 39 880 37.2C906.7 35.3 933.3 29.7 946.7 26.8L960 24L960 0L946.7 0C933.3 0 906.7 0 880 0C853.3 0 826.7 0 800 0C773.3 0 746.7 0 720 0C693.3 0 666.7 0 640 0C613.3 0 586.7 0 560 0C533.3 0 506.7 0 480 0C453.3 0 426.7 0 400 0C373.3 0 346.7 0 320 0C293.3 0 266.7 0 240 0C213.3 0 186.7 0 160 0C133.3 0 106.7 0 80 0C53.3 0 26.7 0 13.3 0L0 0Z" fill="#000000"></path><path d="M0 35L13.3 38.7C26.7 42.3 53.3 49.7 80 56.8C106.7 64 133.3 71 160 68.8C186.7 66.7 213.3 55.3 240 45.3C266.7 35.3 293.3 26.7 320 28.3C346.7 30 373.3 42 400 40.3C426.7 38.7 453.3 23.3 480 25C506.7 26.7 533.3 45.3 560 52C586.7 58.7 613.3 53.3 640 44.5C666.7 35.7 693.3 23.3 720 23.8C746.7 24.3 773.3 37.7 800 49.3C826.7 61 853.3 71 880 70C906.7 69 933.3 57 946.7 51L960 45L960 22L946.7 24.8C933.3 27.7 906.7 33.3 880 35.2C853.3 37 826.7 35 800 28.5C773.3 22 746.7 11 720 7.7C693.3 4.3 666.7 8.7 640 18C613.3 27.3 586.7 41.7 560 39.5C533.3 37.3 506.7 18.7 480 14.3C453.3 10 426.7 20 400 20.8C373.3 21.7 346.7 13.3 320 8.7C293.3 4 266.7 3 240 10C213.3 17 186.7 32 160 38.5C133.3 45 106.7 43 80 38.5C53.3 34 26.7 27 13.3 23.5L0 20Z" fill="#4e4e4e"></path><path d="M0 57L13.3 60C26.7 63 53.3 69 80 74.8C106.7 80.7 133.3 86.3 160 82.3C186.7 78.3 213.3 64.7 240 57.2C266.7 49.7 293.3 48.3 320 53.5C346.7 58.7 373.3 70.3 400 65C426.7 59.7 453.3 37.3 480 39.5C506.7 41.7 533.3 68.3 560 76.5C586.7 84.7 613.3 74.3 640 64.2C666.7 54 693.3 44 720 46.7C746.7 49.3 773.3 64.7 800 75.5C826.7 86.3 853.3 92.7 880 88C906.7 83.3 933.3 67.7 946.7 59.8L960 52L960 43L946.7 49C933.3 55 906.7 67 880 68C853.3 69 826.7 59 800 47.3C773.3 35.7 746.7 22.3 720 21.8C693.3 21.3 666.7 33.7 640 42.5C613.3 51.3 586.7 56.7 560 50C533.3 43.3 506.7 24.7 480 23C453.3 21.3 426.7 36.7 400 38.3C373.3 40 346.7 28 320 26.3C293.3 24.7 266.7 33.3 240 43.3C213.3 53.3 186.7 64.7 160 66.8C133.3 69 106.7 62 80 54.8C53.3 47.7 26.7 40.3 13.3 36.7L0 33Z" fill="#a2a2a2"></path><path d="M0 101L13.3 101C26.7 101 53.3 101 80 101C106.7 101 133.3 101 160 101C186.7 101 213.3 101 240 101C266.7 101 293.3 101 320 101C346.7 101 373.3 101 400 101C426.7 101 453.3 101 480 101C506.7 101 533.3 101 560 101C586.7 101 613.3 101 640 101C666.7 101 693.3 101 720 101C746.7 101 773.3 101 800 101C826.7 101 853.3 101 880 101C906.7 101 933.3 101 946.7 101L960 101L960 50L946.7 57.8C933.3 65.7 906.7 81.3 880 86C853.3 90.7 826.7 84.3 800 73.5C773.3 62.7 746.7 47.3 720 44.7C693.3 42 666.7 52 640 62.2C613.3 72.3 586.7 82.7 560 74.5C533.3 66.3 506.7 39.7 480 37.5C453.3 35.3 426.7 57.7 400 63C373.3 68.3 346.7 56.7 320 51.5C293.3 46.3 266.7 47.7 240 55.2C213.3 62.7 186.7 76.3 160 80.3C133.3 84.3 106.7 78.7 80 72.8C53.3 67 26.7 61 13.3 58L0 55Z" fill="#ffffff"></path></svg>