<svg id="visual" viewBox="0 0 960 100" width="960" height="100" xmlns="http://www.w3.org/2000/svg" xmlns:xlink="http://www.w3.org/1999/xlink" version="1.1"><rect x="0" y="0" width="960" height="100" fill="#000000"></rect><path d="M0 47L10 49.7C20 52.3 40 57.7 60 61.2C80 64.7 100 66.3 120 65.3C140 64.3 160 60.7 180 63.3C200 66 220 75 240 72.2C260 69.3 280 54.7 300 53.3C320 52 340 64 360 71.3C380 78.7 400 81.3 420 78.3C440 75.3 460 66.7 480 63.3C500 60 520 62 540 68.7C560 75.3 580 86.7 600 89.8C620 93 640 88 660 79.5C680 71 700 59 720 60.2C740 61.3 760 75.7 780 82.3C800 89 820 88 840 80.3C860 72.7 880 58.3 900 51.5C920 44.7 940 45.3 950 45.7L960 46L960 101L950 101C940 101 920 101 900 101C880 101 860 101 840 101C820 101 800 101 780 101C760 101 740 101 720 101C700 101 680 101 660 101C640 101 620 101 600 101C580 101 560 101 540 101C520 101 500 101 480 101C460 101 440 101 420 101C400 101 380 101 360 101C340 101 320 101 300 101C280 101 260 101 240 101C220 101 200 101 180 101C160 101 140 101 120 101C100 101 80 101 60 101C40 101 20 101 10 101L0 101Z" fill="#ffffff" stroke-linecap="round" stroke-linejoin="miter"></path></svg>